{"title":"Star Trek: Into Darkness(2013)MPEG-4[DaScubaDude]","uid":15361559,"size":1435575439,"categoryP":"video","categoryS":"movies","magnet":"?xt=urn:btih:5971c2de1fa56f72ecfc88e8168126a18d5340a3&amp;dn=Star+Trek%3A+Into+Darkness%282013%29MPEG-4%5BDaScubaDude%5D&amp;tr=udp%3A%2F%2Ftracker.leechers-paradise.org%3A6969&amp;tr=udp%3A%2F%2Fzer0day.ch%3A1337&amp;tr=udp%3A%2F%2Fopen.demonii.com%3A1337&amp;tr=udp%3A%2F%2Ftracker.coppersurfer.tk%3A6969&amp;tr=udp%3A%2F%2Fexodus.desync.com%3A6969","seeders":3,"leechers":0,"uploader":"dascuba","files":1,"time":1469039562,"description":"\nStar Trek Into Darkness (2013)\r\nPG-13 | 2h 12min | Action, Adventure, Sci-Fi | 16 May 2013 (USA)\r\nAfter the crew of the Enterprise find an unstoppable force of terror from within their own organization, Captain Kirk leads a manhunt to a war-zone world to capture a one-man weapon of mass destruction.\r\nDirector: J.J. Abrams\r\nWriters: Roberto Orci, Alex Kurtzman | \r\nStars: Chris Pine, Zachary Quinto, Zoe Saldana | \r\n\r\nGeneral\r\nComplete name                            : StarTrekIntoDarkSTAR_TREK_INTO_DARKNESS_Title60.mp4\r\nFormat                                   : MPEG-4\r\nFormat profile                           : Base Media\r\nCodec ID                                 : isom (isom/iso2/avc1/mp41)\r\nFile size                                : 1.34 GiB\r\nDuration                                 : 2h 12mn\r\nOverall bit rate                         : 1 449 Kbps\r\nMovie name                               : STAR_TREK_INTO_DARKNESS\r\nGenre                                    : Science_Fiction\r\nWriting application                      : Lavf54.6.100\r\n\r\nVideo\r\nID                                       : 1\r\nFormat                                   : AVC\r\nFormat/Info                              : Advanced Video Codec\r\nFormat profile                           :   \r\nFormat settings, CABAC                   : No\r\nFormat settings, ReFrames                : 6 frames\r\nCodec ID                                 : avc1\r\nCodec ID/Info                            : Advanced Video Coding\r\nDuration                                 : 2h 12mn\r\nBit rate                                 : 1 193 Kbps\r\nWidth                                    : 720 pixels\r\nHeight                                   : 404 pixels\r\nDisplay aspect ratio                     : 16:9\r\nFrame rate mode                          : Constant\r\nFrame rate                               : 29.970 (30000/1001) fps\r\nColor space                              : YUV\r\nChroma subsampling                       : 4:2:0\r\nBit depth                                : 8 bits\r\nScan type                                : Progressive\r\nBits/(Pixel*Frame)                       : 0.137\r\nStream size                              : 1.10 GiB (82%)\r\n\r\nAudio\r\nID                                       : 2\r\nFormat                                   : AAC\r\nFormat/Info                              : Advanced Audio Codec\r\nFormat profile                           : LC\r\nCodec ID                                 : 40\r\nDuration                                 : 2h 12mn\r\nBit rate mode                            : Constant\r\nBit rate                                 : 250 Kbps\r\nChannel(s)                               : 2 channels\r\nChannel(s)_Original                      : 6 channels\r\nChannel positions                        : Front: L C R, Side: L R, LFE\r\nSampling rate                            : 44.1 KHz\r\nFrame rate                               : 43.066 fps (1024 spf)\r\nCompression mode                         : Lossy\r\nStream size                              : 236 MiB (17%)\r\nDefault                                  : Yes\r\nAlternate group                          : 1","torrent":{"xt":"urn:btih:5971c2de1fa56f72ecfc88e8168126a18d5340a3","amp;dn":"Star+Trek%3A+Into+Darkness%282013%29MPEG-4%5BDaScubaDude%5D","amp;tr":["udp%3A%2F%2Ftracker.leechers-paradise.org%3A6969","udp%3A%2F%2Fzer0day.ch%3A1337","udp%3A%2F%2Fopen.demonii.com%3A1337","udp%3A%2F%2Ftracker.coppersurfer.tk%3A6969","udp%3A%2F%2Fexodus.desync.com%3A6969"],"infoHash":"5971c2de1fa56f72ecfc88e8168126a18d5340a3","infoHashBuffer":{"type":"Buffer","data":[89,113,194,222,31,165,111,114,236,252,136,232,22,129,38,161,141,83,64,163]},"announce":[],"urlList":[]}}